Raleway-Light.ufo
<glyph name="numbersign" format="1">
  <advance width="669"/>
  <unicode hex="0023"/>
  <outline>
    <contour>
      <point x="631" y="505" type="line"/>
      <point x="516" y="505" type="line"/>
      <point x="566" y="710" type="line"/>
      <point x="522" y="710" type="line"/>
      <point x="473" y="505" type="line"/>
      <point x="265" y="505" type="line"/>
      <point x="315" y="710" type="line"/>
      <point x="271" y="710" type="line"/>
      <point x="222" y="505" type="line"/>
      <point x="79" y="505" type="line"/>
      <point x="79" y="466" type="line"/>
      <point x="212" y="466" type="line"/>
      <point x="160" y="253" type="line"/>
      <point x="38" y="253" type="line"/>
      <point x="38" y="212" type="line"/>
      <point x="151" y="212" type="line"/>
      <point x="98" y="0" type="line"/>
      <point x="142" y="0" type="line"/>
      <point x="194" y="212" type="line"/>
      <point x="402" y="212" type="line"/>
      <point x="349" y="0" type="line"/>
      <point x="393" y="0" type="line"/>
      <point x="445" y="212" type="line"/>
      <point x="589" y="212" type="line"/>
      <point x="589" y="253" type="line"/>
      <point x="455" y="253" type="line"/>
      <point x="506" y="466" type="line"/>
      <point x="631" y="466" type="line"/>
    </contour>
    <contour>
      <point x="203" y="253" type="line"/>
      <point x="255" y="466" type="line"/>
      <point x="463" y="466" type="line"/>
      <point x="412" y="253" type="line"/>
    </contour>
  </outline>
</glyph>
<glyph name="dollar" format="1">
  <advance width="617"/>
  <unicode hex="0024"/>
  <outline>
    <contour>
      <point x="296" y="-99" type="line"/>
      <point x="327" y="-99" type="line"/>
      <point x="327" y="17" type="line"/>
      <point x="296" y="17" type="line"/>
    </contour>
    <contour>
      <point x="324" y="23" type="line"/>
      <point x="324" y="689" type="line"/>
      <point x="298" y="685" type="line"/>
      <point x="298" y="25" type="line"/>
    </contour>
    <contour>
      <point x="296" y="686" type="line"/>
      <point x="327" y="690" type="line"/>
      <point x="327" y="815" type="line"/>
      <point x="296" y="815" type="line"/>
    </contour>
    <component base="S" xOffset="7"/>
  </outline>
</glyph>
<glyph name="percent" format="1">
  <advance width="698"/>
  <unicode hex="0025"/>
  <outline>
    <contour>
      <point x="188" y="437" type="curve" smooth="yes"/>
      <point x="269" y="437"/>
      <point x="333" y="500"/>
      <point x="333" y="578" type="curve" smooth="yes"/>
      <point x="333" y="657"/>
      <point x="269" y="720"/>
      <point x="188" y="720" type="curve" smooth="yes"/>
      <point x="108" y="720"/>
      <point x="43" y="657"/>
      <point x="43" y="578" type="curve" smooth="yes"/>
      <point x="43" y="500"/>
      <point x="108" y="437"/>
    </contour>
    <contour>
      <point x="188" y="469" type="curve" smooth="yes"/>
      <point x="131" y="469"/>
      <point x="83" y="518"/>
      <point x="83" y="578" type="curve" smooth="yes"/>
      <point x="83" y="636"/>
      <point x="129" y="688"/>
      <point x="188" y="688" type="curve" smooth="yes"/>
      <point x="244" y="688"/>
      <point x="294" y="639"/>
      <point x="294" y="578" type="curve" smooth="yes"/>
      <point x="294" y="521"/>
      <point x="247" y="469"/>
    </contour>
    <contour>
      <point x="510" y="-10" type="curve" smooth="yes"/>
      <point x="591" y="-10"/>
      <point x="655" y="53"/>
      <point x="655" y="132" type="curve" smooth="yes"/>
      <point x="655" y="210"/>
      <point x="591" y="273"/>
      <point x="510" y="273" type="curve" smooth="yes"/>
      <point x="430" y="273"/>
      <point x="365" y="210"/>
      <point x="365" y="132" type="curve" smooth="yes"/>
      <point x="365" y="53"/>
      <point x="430" y="-10"/>
    </contour>
    <contour>
      <point x="510" y="22" type="curve" smooth="yes"/>
      <point x="452" y="22"/>
      <point x="405" y="71"/>
      <point x="405" y="132" type="curve" smooth="yes"/>
      <point x="405" y="189"/>
      <point x="451" y="241"/>
      <point x="510" y="241" type="curve" smooth="yes"/>
      <point x="566" y="241"/>
      <point x="616" y="192"/>
      <point x="616" y="132" type="curve" smooth="yes"/>
      <point x="616" y="73"/>
      <point x="569" y="22"/>
    </contour>
    <component base="fraction" xOffset="279"/>
  </outline>
</glyph>
<glyph name="ampersand" format="1">
  <advance width="655"/>
  <unicode hex="0026"/>
  <outline>
    <contour>
      <point x="648" y="0" type="line"/>
      <point x="257" y="407" type="line" smooth="yes"/>
      <point x="169" y="499"/>
      <point x="151" y="533"/>
      <point x="151" y="568" type="curve" smooth="yes"/>
      <point x="151" y="628"/>
      <point x="205" y="678"/>
      <point x="277" y="678" type="curve" smooth="yes"/>
      <point x="343" y="678"/>
      <point x="391" y="637"/>
      <point x="391" y="581" type="curve" smooth="yes"/>
      <point x="391" y="516"/>
      <point x="325" y="471"/>
      <point x="227" y="407" type="curve" smooth="yes"/>
      <point x="134" y="345"/>
      <point x="49" y="283"/>
      <point x="49" y="178" type="curve" smooth="yes"/>
      <point x="49" y="62"/>
      <point x="154" y="-10"/>
      <point x="272" y="-10" type="curve" smooth="yes"/>
      <point x="452" y="-10"/>
      <point x="578" y="157"/>
      <point x="579" y="348" type="curve"/>
      <point x="535" y="348" type="line"/>
      <point x="535" y="181"/>
      <point x="429" y="31"/>
      <point x="278" y="31" type="curve" smooth="yes"/>
      <point x="192" y="31"/>
      <point x="98" y="80"/>
      <point x="98" y="176" type="curve" smooth="yes"/>
      <point x="98" y="262"/>
      <point x="170" y="319"/>
      <point x="256" y="376" type="curve" smooth="yes"/>
      <point x="350" y="438"/>
      <point x="437" y="496"/>
      <point x="437" y="583" type="curve" smooth="yes"/>
      <point x="437" y="661"/>
      <point x="368" y="719"/>
      <point x="278" y="719" type="curve" smooth="yes"/>
      <point x="179" y="719"/>
      <point x="104" y="650"/>
      <point x="104" y="567" type="curve" smooth="yes"/>
      <point x="104" y="515"/>
      <point x="134" y="469"/>
      <point x="221" y="378" type="curve" smooth="yes"/>
      <point x="581" y="0" type="line"/>
    </contour>
  </outline>
</glyph>
<glyph name="asterisk" format="1">
  <advance width="314"/>
  <unicode hex="002A"/>
  <outline>
    <contour>
      <point x="115" y="535" type="line"/>
      <point x="157" y="596" type="line"/>
      <point x="199" y="535" type="line"/>
      <point x="225" y="553" type="line"/>
      <point x="182" y="613" type="line"/>
      <point x="250" y="635" type="line"/>
      <point x="241" y="664" type="line"/>
      <point x="172" y="640" type="line"/>
      <point x="172" y="712" type="line"/>
      <point x="141" y="712" type="line"/>
      <point x="141" y="640" type="line"/>
      <point x="73" y="664" type="line"/>
      <point x="64" y="635" type="line"/>
      <point x="132" y="613" type="line"/>
      <point x="90" y="553" type="line"/>
    </contour>
  </outline>
</glyph>
<glyph name="one" format="1">
  <advance width="408"/>
  <unicode hex="0031"/>
  <outline>
    <contour>
      <point x="260" y="46" type="line"/>
      <point x="260" y="571" type="line"/>
      <point x="210" y="571" type="line"/>
      <point x="205" y="562"/>
      <point x="111" y="476"/>
      <point x="45" y="476" type="curve"/>
      <point x="45" y="426" type="line"/>
      <point x="99" y="426"/>
      <point x="187" y="477"/>
      <point x="210" y="508" type="curve"/>
      <point x="210" y="46" type="line"/>
      <point x="68" y="46" type="line"/>
      <point x="68" y="0" type="line"/>
      <point x="387" y="0" type="line"/>
      <point x="387" y="46" type="line"/>
    </contour>
  </outline>
</glyph>
<glyph name="six" format="1">
  <advance width="600"/>
  <unicode hex="0036"/>
  <outline>
    <contour>
      <point x="556" y="233" type="curve" smooth="yes"/>
      <point x="556" y="98"/>
      <point x="447" y="-10"/>
      <point x="307" y="-10" type="curve" smooth="yes"/>
      <point x="161" y="-10"/>
      <point x="54" y="99"/>
      <point x="54" y="279" type="curve" smooth="yes"/>
      <point x="54" y="577"/>
      <point x="159" y="715"/>
      <point x="312" y="715" type="curve" smooth="yes"/>
      <point x="407" y="715"/>
      <point x="486" y="662"/>
      <point x="522" y="577" type="curve"/>
      <point x="487" y="550" type="line"/>
      <point x="460" y="622"/>
      <point x="391" y="670"/>
      <point x="312" y="670" type="curve" smooth="yes"/>
      <point x="187" y="670"/>
      <point x="104" y="546"/>
      <point x="103" y="331" type="curve"/>
      <point x="133" y="417"/>
      <point x="217" y="475"/>
      <point x="313" y="475" type="curve" smooth="yes"/>
      <point x="448" y="475"/>
      <point x="556" y="367"/>
    </contour>
    <contour>
      <point x="308" y="35" type="curve" smooth="yes"/>
      <point x="418" y="35"/>
      <point x="508" y="124"/>
      <point x="508" y="233" type="curve" smooth="yes"/>
      <point x="508" y="342"/>
      <point x="417" y="432"/>
      <point x="308" y="432" type="curve" smooth="yes"/>
      <point x="198" y="432"/>
      <point x="108" y="342"/>
      <point x="108" y="233" type="curve" smooth="yes"/>
      <point x="108" y="125"/>
      <point x="199" y="35"/>
    </contour>
  </outline>
</glyph>
<glyph name="B" format="1">
  <advance width="662"/>
  <unicode hex="0042"/>
  <outline>
    <contour>
      <point x="616" y="184" type="curve" smooth="yes"/>
      <point x="616" y="268"/>
      <point x="565" y="340"/>
      <point x="484" y="364" type="curve"/>
      <point x="547" y="392"/>
      <point x="586" y="458"/>
      <point x="586" y="529" type="curve" smooth="yes"/>
      <point x="586" y="618"/>
      <point x="524" y="710"/>
      <point x="424" y="710" type="curve" smooth="yes"/>
      <point x="93" y="710" type="line"/>
      <point x="93" y="0" type="line"/>
      <point x="425" y="0" type="line" smooth="yes"/>
      <point x="530" y="0"/>
      <point x="616" y="80"/>
    </contour>
    <contour>
      <point x="565" y="191" type="curve" smooth="yes"/>
      <point x="565" y="117"/>
      <point x="504" y="46"/>
      <point x="425" y="46" type="curve" smooth="yes"/>
      <point x="144" y="46" type="line"/>
      <point x="144" y="337" type="line"/>
      <point x="432" y="337" type="line" smooth="yes"/>
      <point x="508" y="337"/>
      <point x="565" y="267"/>
    </contour>
    <contour>
      <point x="410" y="664" type="line"/>
      <point x="484" y="664"/>
      <point x="536" y="599"/>
      <point x="536" y="522" type="curve" smooth="yes"/>
      <point x="536" y="449"/>
      <point x="481" y="380"/>
      <point x="404" y="380" type="curve" smooth="yes"/>
      <point x="144" y="380" type="line"/>
      <point x="144" y="664" type="line"/>
    </contour>
  </outline>
</glyph>
<glyph name="H" format="1">
  <advance width="735"/>
  <unicode hex="0048"/>
  <outline>
    <contour>
      <point x="370" y="707" type="move" name="top"/>
    </contour>
    <contour>
      <point x="592" y="710" type="line"/>
      <point x="592" y="386" type="line"/>
      <point x="144" y="386" type="line"/>
      <point x="144" y="710" type="line"/>
      <point x="93" y="710" type="line"/>
      <point x="93" y="0" type="line"/>
      <point x="144" y="0" type="line"/>
      <point x="144" y="340" type="line"/>
      <point x="592" y="340" type="line"/>
      <point x="592" y="0" type="line"/>
      <point x="643" y="0" type="line"/>
      <point x="643" y="710" type="line"/>
    </contour>
  </outline>
</glyph>
<glyph name="f" format="1">
  <advance width="318"/>
  <unicode hex="0066"/>
  <outline>
    <contour>
      <point x="151" y="0" type="line"/>
      <point x="151" y="479" type="line"/>
      <point x="299" y="479" type="line"/>
      <point x="299" y="520" type="line"/>
      <point x="151" y="520" type="line"/>
      <point x="151" y="538" type="line" smooth="yes"/>
      <point x="151" y="640"/>
      <point x="189" y="696"/>
      <point x="257" y="696" type="curve" smooth="yes"/>
      <point x="286" y="696"/>
      <point x="316" y="686"/>
      <point x="334" y="671" type="curve"/>
      <point x="352" y="707" type="line"/>
      <point x="328" y="727"/>
      <point x="288" y="740"/>
      <point x="248" y="740" type="curve" smooth="yes"/>
      <point x="157" y="740"/>
      <point x="101" y="664"/>
      <point x="101" y="537" type="curve" smooth="yes"/>
      <point x="101" y="520" type="line"/>
      <point x="28" y="520" type="line"/>
      <point x="28" y="479" type="line"/>
      <point x="101" y="479" type="line"/>
      <point x="101" y="0" type="line"/>
    </contour>
  </outline>
</glyph>
<glyph name="j" format="1">
  <advance width="214"/>
  <unicode hex="006A"/>
  <outline>
    <contour>
      <point x="-10" y="-177" type="curve" smooth="yes"/>
      <point x="62" y="-177"/>
      <point x="136" y="-115"/>
      <point x="136" y="-28" type="curve" smooth="yes"/>
      <point x="136" y="520" type="line"/>
      <point x="86" y="520" type="line"/>
      <point x="86" y="-30" type="line" smooth="yes"/>
      <point x="86" y="-88"/>
      <point x="35" y="-131"/>
      <point x="-15" y="-131" type="curve" smooth="yes"/>
      <point x="-41" y="-131"/>
      <point x="-70" y="-126"/>
      <point x="-92" y="-107" type="curve"/>
      <point x="-119" y="-140" type="line"/>
      <point x="-90" y="-167"/>
      <point x="-52" y="-177"/>
    </contour>
    <contour>
      <point x="136" y="638" type="line"/>
      <point x="136" y="730" type="line"/>
      <point x="86" y="730" type="line"/>
      <point x="86" y="638" type="line"/>
    </contour>
  </outline>
</glyph>
<glyph name="k" format="1">
  <advance width="522"/>
  <unicode hex="006B"/>
  <outline>
    <contour>
      <point x="272" y="0" type="move" name="bottom"/>
    </contour>
    <contour>
      <point x="509" y="0" type="line"/>
      <point x="285" y="308" type="line"/>
      <point x="502" y="519" type="line"/>
      <point x="444" y="519" type="line"/>
      <point x="128" y="220" type="line"/>
      <point x="128" y="730" type="line"/>
      <point x="78" y="730" type="line"/>
      <point x="78" y="0" type="line"/>
      <point x="128" y="0" type="line"/>
      <point x="128" y="165" type="line"/>
      <point x="251" y="278" type="line"/>
      <point x="454" y="0" type="line"/>
    </contour>
  </outline>
</glyph>
<glyph name="m" format="1">
  <advance width="915"/>
  <unicode hex="006D"/>
  <outline>
    <contour>
      <point x="842" y="299" type="line"/>
      <point x="842" y="444"/>
      <point x="797" y="529"/>
      <point x="684" y="529" type="curve" smooth="yes"/>
      <point x="597" y="529"/>
      <point x="529" y="481"/>
      <point x="480" y="388" type="curve"/>
      <point x="469" y="472"/>
      <point x="411" y="529"/>
      <point x="324" y="529" type="curve" smooth="yes"/>
      <point x="241" y="529"/>
      <point x="168" y="480"/>
      <point x="125" y="396" type="curve"/>
      <point x="125" y="520" type="line"/>
      <point x="78" y="520" type="line"/>
      <point x="78" y="0" type="line"/>
      <point x="128" y="0" type="line"/>
      <point x="128" y="322" type="line"/>
      <point x="156" y="418"/>
      <point x="227" y="483"/>
      <point x="312" y="483" type="curve" smooth="yes"/>
      <point x="396" y="483"/>
      <point x="435" y="423"/>
      <point x="435" y="290" type="curve" smooth="yes"/>
      <point x="435" y="0" type="line"/>
      <point x="485" y="0" type="line"/>
      <point x="485" y="321" type="line"/>
      <point x="511" y="416"/>
      <point x="582" y="483"/>
      <point x="668" y="483" type="curve" smooth="yes"/>
      <point x="752" y="483"/>
      <point x="792" y="421"/>
      <point x="792" y="290" type="curve" smooth="yes"/>
      <point x="792" y="0" type="line"/>
      <point x="842" y="0" type="line"/>
    </contour>
  </outline>
</glyph>
<glyph name="brokenbar" format="1">
  <advance width="226"/>
  <unicode hex="00A6"/>
  <outline>
    <contour>
      <point x="91" y="280" type="line"/>
      <point x="91" y="-130" type="line"/>
      <point x="136" y="-130" type="line"/>
      <point x="136" y="280" type="line"/>
    </contour>
    <contour>
      <point x="91" y="775" type="line"/>
      <point x="91" y="365" type="line"/>
      <point x="136" y="365" type="line"/>
      <point x="136" y="775" type="line"/>
    </contour>
  </outline>
</glyph>
<glyph name="registered" format="1">
  <advance width="829"/>
  <unicode hex="00AE"/>
  <outline>
    <contour>
      <point x="414" y="-7" type="curve" smooth="yes"/>
      <point x="624" y="-7"/>
      <point x="780" y="148"/>
      <point x="780" y="355" type="curve" smooth="yes"/>
      <point x="780" y="561"/>
      <point x="624" y="715"/>
      <point x="414" y="715" type="curve" smooth="yes"/>
      <point x="205" y="715"/>
      <point x="49" y="561"/>
      <point x="49" y="355" type="curve" smooth="yes"/>
      <point x="49" y="148"/>
      <point x="205" y="-7"/>
    </contour>
    <contour>
      <point x="414" y="21" type="curve" smooth="yes"/>
      <point x="221" y="21"/>
      <point x="80" y="164"/>
      <point x="80" y="355" type="curve" smooth="yes"/>
      <point x="80" y="544"/>
      <point x="221" y="687"/>
      <point x="414" y="687" type="curve" smooth="yes"/>
      <point x="608" y="687"/>
      <point x="750" y="544"/>
      <point x="750" y="355" type="curve" smooth="yes"/>
      <point x="750" y="155"/>
      <point x="604" y="21"/>
    </contour>
    <contour>
      <point x="265" y="125" type="line"/>
      <point x="305" y="125" type="line"/>
      <point x="305" y="298" type="line"/>
      <point x="437" y="298" type="line"/>
      <point x="547" y="125" type="line"/>
      <point x="592" y="125" type="line"/>
      <point x="479" y="303" type="line"/>
      <point x="543" y="312"/>
      <point x="587" y="372"/>
      <point x="587" y="439" type="curve" smooth="yes"/>
      <point x="587" y="509"/>
      <point x="532" y="581"/>
      <point x="455" y="581" type="curve" smooth="yes"/>
      <point x="265" y="581" type="line"/>
    </contour>
    <contour>
      <point x="305" y="334" type="line"/>
      <point x="305" y="543" type="line"/>
      <point x="452" y="543" type="line" smooth="yes"/>
      <point x="508" y="543"/>
      <point x="548" y="498"/>
      <point x="548" y="439" type="curve" smooth="yes"/>
      <point x="548" y="382"/>
      <point x="516" y="334"/>
      <point x="456" y="334" type="curve" smooth="yes"/>
    </contour>
  </outline>
</glyph>
<glyph name="Eth" format="1">
  <advance width="720"/>
  <unicode hex="00D0"/>
  <outline>
    <contour>
      <point x="329" y="336" type="line"/>
      <point x="329" y="378" type="line"/>
      <point x="35" y="378" type="line"/>
      <point x="35" y="336" type="line"/>
    </contour>
    <component base="D" xOffset="7"/>
  </outline>
</glyph>
<glyph name="Thorn" format="1">
  <advance width="601"/>
  <unicode hex="00DE"/>
  <outline>
    <contour>
      <point x="366" y="566" type="curve"/>
      <point x="144" y="566" type="line"/>
      <point x="144" y="710" type="line"/>
      <point x="93" y="710" type="line"/>
      <point x="93" y="0" type="line"/>
      <point x="144" y="0" type="line"/>
      <point x="144" y="124" type="line"/>
      <point x="372" y="124" type="line" smooth="yes"/>
      <point x="492" y="124"/>
      <point x="572" y="231"/>
      <point x="572" y="345" type="curve" smooth="yes"/>
      <point x="572" y="454"/>
      <point x="486" y="566"/>
    </contour>
    <contour>
      <point x="371" y="171" type="curve"/>
      <point x="144" y="171" type="line"/>
      <point x="144" y="519" type="line"/>
      <point x="364" y="519" type="line" smooth="yes"/>
      <point x="451" y="519"/>
      <point x="522" y="437"/>
      <point x="522" y="345" type="curve" smooth="yes"/>
      <point x="522" y="258"/>
      <point x="464" y="171"/>
    </contour>
  </outline>
</glyph>
<glyph name="Dcroat" format="1">
  <advance width="720"/>
  <unicode hex="0110"/>
  <outline>
    <contour>
      <point x="329" y="336" type="line"/>
      <point x="329" y="378" type="line"/>
      <point x="35" y="378" type="line"/>
      <point x="35" y="336" type="line"/>
    </contour>
    <component base="D" xOffset="7"/>
  </outline>
</glyph>
<glyph name="Hbar" format="1">
  <advance width="745"/>
  <unicode hex="0126"/>
  <outline>
    <contour>
      <point x="698" y="551" type="line"/>
      <point x="698" y="583" type="line"/>
      <point x="48" y="583" type="line"/>
      <point x="48" y="551" type="line"/>
    </contour>
    <component base="H" xOffset="5"/>
  </outline>
</glyph>
<glyph name="eng" format="1">
  <advance width="576"/>
  <unicode hex="014B"/>
  <outline>
    <contour>
      <point x="358" y="-177" type="curve" smooth="yes"/>
      <point x="430" y="-177"/>
      <point x="503" y="-115"/>
      <point x="503" y="-28" type="curve" smooth="yes"/>
      <point x="503" y="299" type="line" smooth="yes"/>
      <point x="503" y="446"/>
      <point x="461" y="529"/>
      <point x="348" y="529" type="curve" smooth="yes"/>
      <point x="256" y="529"/>
      <point x="167" y="475"/>
      <point x="125" y="396" type="curve"/>
      <point x="125" y="520" type="line"/>
      <point x="78" y="520" type="line"/>
      <point x="78" y="0" type="line"/>
      <point x="128" y="0" type="line"/>
      <point x="128" y="322" type="line"/>
      <point x="155" y="414"/>
      <point x="246" y="483"/>
      <point x="334" y="483" type="curve" smooth="yes"/>
      <point x="416" y="483"/>
      <point x="453" y="424"/>
      <point x="453" y="290" type="curve" smooth="yes"/>
      <point x="453" y="-30" type="line" smooth="yes"/>
      <point x="453" y="-88"/>
      <point x="402" y="-131"/>
      <point x="353" y="-131" type="curve" smooth="yes"/>
      <point x="326" y="-131"/>
      <point x="298" y="-126"/>
      <point x="276" y="-107" type="curve"/>
      <point x="249" y="-140" type="line"/>
      <point x="277" y="-167"/>
      <point x="315" y="-177"/>
    </contour>
  </outline>
</glyph>
<glyph name="tbar" format="1">
  <advance width="322"/>
  <unicode hex="0167"/>
  <outline>
    <contour>
      <point x="271" y="319" type="line"/>
      <point x="271" y="355" type="line"/>
      <point x="27" y="355" type="line"/>
      <point x="27" y="319" type="line"/>
    </contour>
    <component base="t" xOffset="1"/>
  </outline>
</glyph>
<glyph name="dotlessj" format="1">
  <advance width="207"/>
  <unicode hex="0237"/>
  <outline>
    <contour>
      <point x="103" y="520" type="move" name="top"/>
    </contour>
    <contour>
      <point x="-18" y="-177" type="curve" smooth="yes"/>
      <point x="55" y="-177"/>
      <point x="128" y="-115"/>
      <point x="128" y="-28" type="curve" smooth="yes"/>
      <point x="128" y="520" type="line"/>
      <point x="78" y="520" type="line"/>
      <point x="78" y="-30" type="line" smooth="yes"/>
      <point x="78" y="-88"/>
      <point x="27" y="-131"/>
      <point x="-22" y="-131" type="curve" smooth="yes"/>
      <point x="-49" y="-131"/>
      <point x="-78" y="-126"/>
      <point x="-99" y="-107" type="curve"/>
      <point x="-126" y="-140" type="line"/>
      <point x="-98" y="-167"/>
      <point x="-60" y="-177"/>
    </contour>
  </outline>
</glyph>
<glyph name="breve" format="1">
  <advance width="269"/>
  <unicode hex="02D8"/>
  <outline>
    <contour>
      <point x="135" y="520" type="move" name="_top"/>
    </contour>
    <contour>
      <point x="135" y="666" type="curve" smooth="yes"/>
      <point x="106" y="666"/>
      <point x="79" y="697"/>
      <point x="79" y="730" type="curve"/>
      <point x="46" y="730" type="line"/>
      <point x="46" y="679"/>
      <point x="86" y="638"/>
      <point x="135" y="638" type="curve" smooth="yes"/>
      <point x="183" y="638"/>
      <point x="224" y="679"/>
      <point x="224" y="730" type="curve"/>
      <point x="191" y="730" type="line"/>
      <point x="187" y="694"/>
      <point x="162" y="666"/>
    </contour>
  </outline>
</glyph>
<glyph name="tilde" format="1">
  <advance width="397"/>
  <unicode hex="02DC"/>
  <outline>
    <contour>
      <point x="197" y="520" type="move" name="_top"/>
    </contour>
    <contour>
      <point x="258" y="647" type="curve" smooth="yes"/>
      <point x="337" y="647"/>
      <point x="350" y="718"/>
      <point x="350" y="730" type="curve"/>
      <point x="316" y="730" type="line"/>
      <point x="316" y="726"/>
      <point x="312" y="682"/>
      <point x="259" y="682" type="curve" smooth="yes"/>
      <point x="208" y="682"/>
      <point x="186" y="722"/>
      <point x="132" y="722" type="curve" smooth="yes"/>
      <point x="60" y="722"/>
      <point x="47" y="650"/>
      <point x="47" y="639" type="curve"/>
      <point x="81" y="639" type="line"/>
      <point x="81" y="644"/>
      <point x="88" y="687"/>
      <point x="132" y="687" type="curve" smooth="yes"/>
      <point x="173" y="687"/>
      <point x="199" y="647"/>
    </contour>
  </outline>
</glyph>
<glyph name="hungarumlaut" format="1">
  <advance width="316"/>
  <unicode hex="02DD"/>
  <outline>
    <contour>
      <point x="138" y="520" type="move" name="_top"/>
    </contour>
    <contour>
      <point x="158" y="730" type="line"/>
      <point x="105" y="730" type="line"/>
      <point x="46" y="645" type="line"/>
      <point x="75" y="629" type="line"/>
    </contour>
    <contour>
      <point x="274" y="730" type="line"/>
      <point x="221" y="730" type="line"/>
      <point x="161" y="645" type="line"/>
      <point x="191" y="629" type="line"/>
    </contour>
  </outline>
</glyph>
<glyph name="uni0311" format="1">
  <advance width="269"/>
  <unicode hex="0311"/>
  <outline>
    <contour>
      <point x="135" y="520" type="move" name="_top"/>
    </contour>
    <contour>
      <point x="135" y="702" type="curve" smooth="yes"/>
      <point x="162" y="702"/>
      <point x="187" y="674"/>
      <point x="191" y="638" type="curve"/>
      <point x="224" y="638" type="line"/>
      <point x="224" y="689"/>
      <point x="183" y="730"/>
      <point x="135" y="730" type="curve" smooth="yes"/>
      <point x="86" y="730"/>
      <point x="46" y="689"/>
      <point x="46" y="638" type="curve"/>
      <point x="79" y="638" type="line"/>
      <point x="79" y="671"/>
      <point x="106" y="702"/>
    </contour>
  </outline>
</glyph>
<glyph name="uni0394" format="1">
  <advance width="647"/>
  <unicode hex="0394"/>
  <outline>
    <contour>
      <point x="345" y="710" type="line"/>
      <point x="303" y="710" type="line"/>
      <point x="23" y="41" type="line"/>
      <point x="23" y="0" type="line"/>
      <point x="623" y="0" type="line"/>
      <point x="623" y="41" type="line"/>
    </contour>
    <contour>
      <point x="80" y="46" type="line"/>
      <point x="324" y="648" type="line"/>
      <point x="567" y="46" type="line"/>
    </contour>
  </outline>
</glyph>
<glyph name="uni0419" format="1">
  <advance width="748"/>
  <unicode hex="0419"/>
  <outline>
    <contour>
      <point x="485" y="916" type="line"/>
      <point x="482" y="879"/>
      <point x="437" y="852"/>
      <point x="376" y="852" type="curve" smooth="yes"/>
      <point x="314" y="852"/>
      <point x="268" y="883"/>
      <point x="268" y="916" type="curve"/>
      <point x="234" y="916" type="line"/>
      <point x="235" y="860"/>
      <point x="285" y="821"/>
      <point x="376" y="821" type="curve" smooth="yes"/>
      <point x="467" y="821"/>
      <point x="517" y="860"/>
      <point x="518" y="916" type="curve"/>
    </contour>
    <component base="uni0418"/>
  </outline>
</glyph>
<glyph name="uni0426" format="1">
  <advance width="714"/>
  <unicode hex="0426"/>
  <outline>
    <contour>
      <point x="546" y="710" type="line"/>
      <point x="546" y="46" type="line"/>
      <point x="145" y="46" type="line"/>
      <point x="145" y="710" type="line"/>
      <point x="94" y="710" type="line"/>
      <point x="94" y="0" type="line"/>
      <point x="597" y="0" type="line"/>
      <point x="597" y="710" type="line"/>
    </contour>
    <contour>
      <point x="644" y="-185" type="line"/>
      <point x="691" y="-185" type="line"/>
      <point x="691" y="46" type="line"/>
      <point x="563" y="46" type="line"/>
      <point x="563" y="0" type="line"/>
      <point x="644" y="0" type="line"/>
    </contour>
  </outline>
</glyph>
<glyph name="uni042F" format="1">
  <advance width="628"/>
  <unicode hex="042F"/>
  <outline>
    <contour>
      <point x="534" y="0" type="line"/>
      <point x="534" y="710" type="line"/>
      <point x="297" y="710" type="line" smooth="yes"/>
      <point x="161" y="710"/>
      <point x="73" y="612"/>
      <point x="73" y="505" type="curve" smooth="yes"/>
      <point x="73" y="388"/>
      <point x="161" y="294"/>
      <point x="292" y="294" type="curve" smooth="yes"/>
      <point x="483" y="294" type="line"/>
      <point x="483" y="0" type="line"/>
    </contour>
    <contour>
      <point x="483" y="340" type="line"/>
      <point x="292" y="340" type="line" smooth="yes"/>
      <point x="184" y="340"/>
      <point x="125" y="417"/>
      <point x="125" y="505" type="curve" smooth="yes"/>
      <point x="125" y="595"/>
      <point x="197" y="664"/>
      <point x="299" y="664" type="curve" smooth="yes"/>
      <point x="483" y="664" type="line"/>
    </contour>
    <contour>
      <point x="222" y="310" type="line"/>
      <point x="32" y="0" type="line"/>
      <point x="93" y="0" type="line"/>
      <point x="275" y="302" type="line"/>
    </contour>
  </outline>
</glyph>
<glyph name="uni0434" format="1">
  <advance width="564"/>
  <unicode hex="0434"/>
  <outline>
    <contour>
      <point x="18" y="-159" type="line"/>
      <point x="61" y="-159" type="line"/>
      <point x="61" y="0" type="line"/>
      <point x="487" y="0" type="line"/>
      <point x="487" y="-159" type="line"/>
      <point x="532" y="-159" type="line"/>
      <point x="532" y="44" type="line"/>
      <point x="467" y="44" type="line"/>
      <point x="467" y="520" type="line"/>
      <point x="179" y="520" type="line"/>
      <point x="163" y="383" type="line" smooth="yes"/>
      <point x="134" y="133"/>
      <point x="104" y="56"/>
      <point x="49" y="44" type="curve"/>
      <point x="18" y="44" type="line"/>
    </contour>
    <contour>
      <point x="120" y="44" type="line"/>
      <point x="158" y="76"/>
      <point x="187" y="177"/>
      <point x="211" y="361" type="curve" smooth="yes"/>
      <point x="226" y="479" type="line"/>
      <point x="418" y="479" type="line"/>
      <point x="418" y="44" type="line"/>
    </contour>
  </outline>
</glyph>
<glyph name="uni0438" format="1">
  <advance width="584"/>
  <unicode hex="0438"/>
  <outline>
    <contour>
      <point x="128" y="520" type="line"/>
      <point x="79" y="520" type="line"/>
      <point x="79" y="0" type="line"/>
      <point x="126" y="0" type="line"/>
      <point x="455" y="442" type="line"/>
      <point x="455" y="0" type="line"/>
      <point x="505" y="0" type="line"/>
      <point x="505" y="520" type="line"/>
      <point x="463" y="520" type="line"/>
      <point x="128" y="70" type="line"/>
    </contour>
  </outline>
</glyph>
<glyph name="uni0439" format="1">
  <advance width="584"/>
  <unicode hex="0439"/>
  <outline>
    <contour>
      <point x="390" y="703" type="line"/>
      <point x="385" y="665"/>
      <point x="359" y="648"/>
      <point x="296" y="648" type="curve" smooth="yes"/>
      <point x="231" y="648"/>
      <point x="202" y="667"/>
      <point x="201" y="703" type="curve"/>
      <point x="168" y="703" type="line"/>
      <point x="170" y="653"/>
      <point x="213" y="620"/>
      <point x="296" y="620" type="curve" smooth="yes"/>
      <point x="378" y="620"/>
      <point x="421" y="653"/>
      <point x="423" y="703" type="curve"/>
    </contour>
    <component base="uni0438"/>
  </outline>
</glyph>
<glyph name="uni043F" format="1">
  <advance width="559"/>
  <unicode hex="043F"/>
  <outline>
    <contour>
      <point x="479" y="520" type="line"/>
      <point x="79" y="520" type="line"/>
      <point x="79" y="0" type="line"/>
      <point x="128" y="0" type="line"/>
      <point x="128" y="476" type="line"/>
      <point x="430" y="476" type="line"/>
      <point x="430" y="0" type="line"/>
      <point x="479" y="0" type="line"/>
    </contour>
  </outline>
</glyph>
<glyph name="bullet" format="1">
  <advance width="347"/>
  <unicode hex="2022"/>
  <outline>
    <contour>
      <point x="259" y="345" type="curve" smooth="yes"/>
      <point x="259" y="391"/>
      <point x="221" y="430"/>
      <point x="174" y="430" type="curve" smooth="yes"/>
      <point x="127" y="430"/>
      <point x="88" y="391"/>
      <point x="88" y="345" type="curve" smooth="yes"/>
      <point x="88" y="297"/>
      <point x="127" y="259"/>
      <point x="174" y="259" type="curve" smooth="yes"/>
      <point x="221" y="259"/>
      <point x="259" y="297"/>
    </contour>
  </outline>
</glyph>
<glyph name="guilsinglright" format="1">
  <advance width="351"/>
  <unicode hex="203A"/>
  <outline>
    <contour>
      <point x="310" y="273" type="line"/>
      <point x="65" y="448" type="line"/>
      <point x="65" y="403" type="line"/>
      <point x="268" y="259" type="line"/>
      <point x="65" y="116" type="line"/>
      <point x="65" y="71" type="line"/>
      <point x="310" y="243" type="line"/>
    </contour>
  </outline>
</glyph>
<glyph name="eightsuperior" format="1">
  <advance width="392"/>
  <unicode hex="2078"/>
  <outline>
    <contour>
      <point x="352" y="525" type="curve" smooth="yes"/>
      <point x="352" y="576"/>
      <point x="311" y="612"/>
      <point x="256" y="628" type="curve"/>
      <point x="300" y="642"/>
      <point x="336" y="671"/>
      <point x="336" y="712" type="curve" smooth="yes"/>
      <point x="336" y="774"/>
      <point x="264" y="810"/>
      <point x="196" y="810" type="curve" smooth="yes"/>
      <point x="128" y="810"/>
      <point x="55" y="773"/>
      <point x="55" y="711" type="curve" smooth="yes"/>
      <point x="55" y="670"/>
      <point x="92" y="642"/>
      <point x="134" y="628" type="curve"/>
      <point x="87" y="613"/>
      <point x="39" y="579"/>
      <point x="39" y="527" type="curve" smooth="yes"/>
      <point x="39" y="465"/>
      <point x="103" y="412"/>
      <point x="194" y="412" type="curve" smooth="yes"/>
      <point x="279" y="412"/>
      <point x="352" y="457"/>
    </contour>
    <contour>
      <point x="316" y="529" type="curve" smooth="yes"/>
      <point x="316" y="479"/>
      <point x="255" y="447"/>
      <point x="196" y="447" type="curve" smooth="yes"/>
      <point x="140" y="447"/>
      <point x="75" y="477"/>
      <point x="75" y="528" type="curve" smooth="yes"/>
      <point x="75" y="579"/>
      <point x="136" y="612"/>
      <point x="195" y="612" type="curve" smooth="yes"/>
      <point x="251" y="612"/>
      <point x="316" y="581"/>
    </contour>
    <contour>
      <point x="91" y="709" type="curve" smooth="yes"/>
      <point x="91" y="751"/>
      <point x="141" y="777"/>
      <point x="195" y="777" type="curve" smooth="yes"/>
      <point x="248" y="777"/>
      <point x="300" y="752"/>
      <point x="300" y="709" type="curve" smooth="yes"/>
      <point x="300" y="667"/>
      <point x="244" y="642"/>
      <point x="195" y="642" type="curve" smooth="yes"/>
      <point x="147" y="642"/>
      <point x="91" y="666"/>
    </contour>
  </outline>
</glyph>
<glyph name="colonmonetary" format="1">
  <advance width="546"/>
  <unicode hex="20A1"/>
  <outline>
    <contour>
      <point x="41" y="262" type="curve" smooth="yes"/>
      <point x="41" y="114"/>
      <point x="153" y="-10"/>
      <point x="299" y="-10" type="curve" smooth="yes"/>
      <point x="396" y="-10"/>
      <point x="483" y="44"/>
      <point x="510" y="117" type="curve"/>
      <point x="461" y="131" type="line"/>
      <point x="445" y="80"/>
      <point x="369" y="35"/>
      <point x="296" y="35" type="curve" smooth="yes"/>
      <point x="185" y="35"/>
      <point x="92" y="137"/>
      <point x="92" y="262" type="curve" smooth="yes"/>
      <point x="92" y="388"/>
      <point x="182" y="484"/>
      <point x="295" y="484" type="curve" smooth="yes"/>
      <point x="363" y="484"/>
      <point x="424" y="449"/>
      <point x="455" y="392" type="curve"/>
      <point x="504" y="408" type="line"/>
      <point x="468" y="483"/>
      <point x="392" y="529"/>
      <point x="298" y="529" type="curve" smooth="yes"/>
      <point x="149" y="529"/>
      <point x="41" y="410"/>
    </contour>
    <contour>
      <point x="357" y="645" type="line"/>
      <point x="326" y="645" type="line"/>
      <point x="326" y="495" type="line"/>
      <point x="357" y="495" type="line"/>
    </contour>
    <contour>
      <point x="230" y="495" type="line"/>
      <point x="261" y="495" type="line"/>
      <point x="261" y="645" type="line"/>
      <point x="230" y="645" type="line"/>
    </contour>
    <contour>
      <point x="357" y="25" type="line"/>
      <point x="326" y="25" type="line"/>
      <point x="326" y="-120" type="line"/>
      <point x="357" y="-120" type="line"/>
    </contour>
    <contour>
      <point x="230" y="-120" type="line"/>
      <point x="261" y="-120" type="line"/>
      <point x="261" y="25" type="line"/>
      <point x="230" y="25" type="line"/>
    </contour>
  </outline>
</glyph>
<glyph name="franc" format="1">
  <advance width="613"/>
  <unicode hex="20A3"/>
  <outline>
    <contour>
      <point x="172" y="0" type="line"/>
      <point x="172" y="338" type="line"/>
      <point x="521" y="338" type="line"/>
      <point x="521" y="382" type="line"/>
      <point x="172" y="382" type="line"/>
      <point x="172" y="664" type="line"/>
      <point x="583" y="664" type="line"/>
      <point x="583" y="710" type="line"/>
      <point x="121" y="710" type="line"/>
      <point x="121" y="0" type="line"/>
    </contour>
    <contour>
      <point x="319" y="140" type="line"/>
      <point x="319" y="182" type="line"/>
      <point x="28" y="182" type="line"/>
      <point x="28" y="140" type="line"/>
    </contour>
  </outline>
</glyph>
<glyph name="uni20B9" format="1">
  <advance width="450"/>
  <unicode hex="20B9"/>
  <outline>
    <contour>
      <point x="44" y="664" type="line"/>
      <point x="125" y="664" type="line" smooth="yes"/>
      <point x="211" y="664"/>
      <point x="282" y="581"/>
      <point x="282" y="490" type="curve" smooth="yes"/>
      <point x="282" y="401"/>
      <point x="224" y="315"/>
      <point x="131" y="315" type="curve" smooth="yes"/>
      <point x="83" y="315" type="line"/>
      <point x="285" y="0" type="line"/>
      <point x="343" y="0" type="line"/>
      <point x="167" y="276" type="line"/>
      <point x="266" y="291"/>
      <point x="333" y="385"/>
      <point x="333" y="490" type="curve" smooth="yes"/>
      <point x="333" y="598"/>
      <point x="247" y="710"/>
      <point x="127" y="710" type="curve" smooth="yes"/>
      <point x="44" y="710" type="line"/>
    </contour>
    <contour>
      <point x="411" y="606" type="line"/>
      <point x="44" y="606" type="line"/>
      <point x="44" y="572" type="line"/>
      <point x="411" y="572" type="line"/>
    </contour>
    <contour>
      <point x="411" y="710" type="line"/>
      <point x="44" y="710" type="line"/>
      <point x="44" y="676" type="line"/>
      <point x="411" y="676" type="line"/>
    </contour>
  </outline>
</glyph>
<glyph name="estimated" format="1">
  <advance width="606"/>
  <unicode hex="212E"/>
  <outline>
    <contour>
      <point x="308" y="18" type="curve" smooth="yes"/>
      <point x="400" y="18"/>
      <point x="466" y="51"/>
      <point x="504" y="94" type="curve"/>
      <point x="523" y="73" type="line"/>
      <point x="476" y="26"/>
      <point x="408" y="-10"/>
      <point x="308" y="-10" type="curve" smooth="yes"/>
      <point x="151" y="-10"/>
      <point x="45" y="115"/>
      <point x="45" y="260" type="curve" smooth="yes"/>
      <point x="45" y="406"/>
      <point x="153" y="531"/>
      <point x="308" y="531" type="curve" smooth="yes"/>
      <point x="464" y="531"/>
      <point x="572" y="407"/>
      <point x="572" y="255" type="curve"/>
      <point x="132" y="255" type="line"/>
      <point x="132" y="105" type="line"/>
      <point x="174" y="51"/>
      <point x="237" y="18"/>
    </contour>
    <contour>
      <point x="308" y="503" type="curve" smooth="yes"/>
      <point x="237" y="503"/>
      <point x="174" y="469"/>
      <point x="132" y="414" type="curve"/>
      <point x="132" y="284" type="line"/>
      <point x="485" y="284" type="line"/>
      <point x="485" y="413" type="line"/>
      <point x="443" y="469"/>
      <point x="377" y="503"/>
    </contour>
  </outline>
</glyph>
<glyph name="minus" format="1">
  <advance width="541"/>
  <unicode hex="2212"/>
  <outline>
    <contour>
      <point x="472" y="265" type="line"/>
      <point x="472" y="307" type="line"/>
      <point x="69" y="307" type="line"/>
      <point x="69" y="265" type="line"/>
    </contour>
  </outline>
</glyph>
<glyph name="notequal" format="1">
  <advance width="455"/>
  <unicode hex="2260"/>
  <outline>
    <contour>
      <point x="138" y="97" type="line"/>
      <point x="343" y="445" type="line"/>
      <point x="312" y="455" type="line"/>
      <point x="107" y="106" type="line"/>
    </contour>
    <contour>
      <point x="78" y="208" type="line"/>
      <point x="376" y="208" type="line"/>
      <point x="376" y="246" type="line"/>
      <point x="78" y="246" type="line"/>
    </contour>
    <contour>
      <point x="78" y="306" type="line"/>
      <point x="376" y="306" type="line"/>
      <point x="376" y="344" type="line"/>
      <point x="78" y="344" type="line"/>
    </contour>
  </outline>
</glyph>
<glyph name="f_f" format="1">
  <advance width="565"/>
  <unicode hex="FB00"/>
  <outline>
    <contour>
      <point x="501" y="695" type="curve" smooth="yes"/>
      <point x="544" y="695"/>
      <point x="561" y="680"/>
      <point x="572" y="671" type="curve"/>
      <point x="590" y="707" type="line"/>
      <point x="581" y="713"/>
      <point x="556" y="740"/>
      <point x="492" y="740" type="curve" smooth="yes"/>
      <point x="430" y="740"/>
      <point x="390" y="714"/>
      <point x="362" y="674" type="curve"/>
      <point x="341" y="687"/>
      <point x="302" y="701"/>
      <point x="255" y="701" type="curve" smooth="yes"/>
      <point x="148" y="701"/>
      <point x="102" y="614"/>
      <point x="101" y="528" type="curve" smooth="yes"/>
      <point x="101" y="520" type="line"/>
      <point x="28" y="520" type="line"/>
      <point x="28" y="479" type="line"/>
      <point x="101" y="479" type="line"/>
      <point x="101" y="0" type="line"/>
      <point x="151" y="0" type="line"/>
      <point x="151" y="479" type="line"/>
      <point x="323" y="479" type="line"/>
      <point x="323" y="0" type="line"/>
      <point x="373" y="0" type="line"/>
      <point x="373" y="479" type="line"/>
      <point x="545" y="479" type="line"/>
      <point x="545" y="520" type="line"/>
      <point x="373" y="520" type="line"/>
      <point x="373" y="538" type="line" smooth="yes"/>
      <point x="373" y="611"/>
      <point x="406" y="695"/>
    </contour>
    <contour>
      <point x="323" y="520" type="curve" smooth="yes"/>
      <point x="151" y="520" type="line"/>
      <point x="151" y="529" type="line" smooth="yes"/>
      <point x="152" y="585"/>
      <point x="176" y="656"/>
      <point x="263" y="656" type="curve" smooth="yes"/>
      <point x="285" y="656"/>
      <point x="322" y="652"/>
      <point x="345" y="635" type="curve"/>
      <point x="329" y="605"/>
      <point x="323" y="564"/>
    </contour>
  </outline>
</glyph>
<glyph name="f_f_i" format="1">
  <advance width="706"/>
  <unicode hex="FB03"/>
  <outline>
    <contour>
      <point x="101" y="0" type="line"/>
      <point x="151" y="0" type="line"/>
      <point x="151" y="479" type="line"/>
      <point x="323" y="479" type="line"/>
      <point x="323" y="0" type="line"/>
      <point x="373" y="0" type="line"/>
      <point x="373" y="479" type="line"/>
      <point x="578" y="479" type="line"/>
      <point x="578" y="0" type="line"/>
      <point x="628" y="0" type="line"/>
      <point x="628" y="520" type="line"/>
      <point x="373" y="520" type="line"/>
      <point x="373" y="538" type="line" smooth="yes"/>
      <point x="373" y="611"/>
      <point x="407" y="695"/>
      <point x="504" y="695" type="curve" smooth="yes"/>
      <point x="549" y="695"/>
      <point x="595" y="679"/>
      <point x="612" y="663" type="curve"/>
      <point x="638" y="698" type="line"/>
      <point x="622" y="710"/>
      <point x="568" y="740"/>
      <point x="499" y="740" type="curve" smooth="yes"/>
      <point x="435" y="740"/>
      <point x="391" y="714"/>
      <point x="362" y="674" type="curve"/>
      <point x="341" y="687"/>
      <point x="302" y="701"/>
      <point x="256" y="701" type="curve" smooth="yes"/>
      <point x="148" y="701"/>
      <point x="101" y="610"/>
      <point x="101" y="528" type="curve" smooth="yes"/>
      <point x="101" y="520" type="line"/>
      <point x="28" y="520" type="line"/>
      <point x="28" y="479" type="line"/>
      <point x="101" y="479" type="line"/>
    </contour>
    <contour>
      <point x="151" y="520" type="line"/>
      <point x="151" y="528" type="line" smooth="yes"/>
      <point x="151" y="583"/>
      <point x="176" y="656"/>
      <point x="263" y="656" type="curve" smooth="yes"/>
      <point x="285" y="656"/>
      <point x="322" y="652"/>
      <point x="345" y="635" type="curve"/>
      <point x="329" y="605"/>
      <point x="323" y="563"/>
      <point x="323" y="520" type="curve"/>
    </contour>
  </outline>
</glyph>
<glyph name="E.sc" format="1">
  <advance width="531"/>
  <outline>
    <contour>
      <point x="347" y="707" type="move" name="top"/>
    </contour>
    <contour>
      <point x="347" y="0" type="move" name="bottom"/>
    </contour>
    <contour>
      <point x="134" y="42" type="line"/>
      <point x="134" y="258" type="line"/>
      <point x="433" y="258" type="line"/>
      <point x="433" y="298" type="line"/>
      <point x="134" y="298" type="line"/>
      <point x="134" y="502" type="line"/>
      <point x="476" y="502" type="line"/>
      <point x="476" y="545" type="line"/>
      <point x="88" y="545" type="line"/>
      <point x="88" y="0" type="line"/>
      <point x="484" y="0" type="line"/>
      <point x="484" y="42" type="line"/>
    </contour>
  </outline>
</glyph>
<glyph name="N.sc" format="1">
  <advance width="667"/>
  <outline>
    <contour>
      <point x="396" y="707" type="move" name="top"/>
    </contour>
    <contour>
      <point x="397" y="0" type="move" name="bottom"/>
    </contour>
    <contour>
      <point x="537" y="0" type="line"/>
      <point x="579" y="0" type="line"/>
      <point x="579" y="544" type="line"/>
      <point x="533" y="544" type="line"/>
      <point x="533" y="80" type="line"/>
      <point x="124" y="545" type="line"/>
      <point x="88" y="545" type="line"/>
      <point x="88" y="0" type="line"/>
      <point x="134" y="0" type="line"/>
      <point x="134" y="457" type="line"/>
    </contour>
  </outline>
</glyph>
<glyph name="Q.sc" format="1">
  <advance width="647"/>
  <outline>
    <contour>
      <point x="324" y="-4" type="curve" smooth="yes"/>
      <point x="482" y="-4"/>
      <point x="601" y="126"/>
      <point x="601" y="272" type="curve" smooth="yes"/>
      <point x="601" y="408"/>
      <point x="490" y="548"/>
      <point x="325" y="548" type="curve" smooth="yes"/>
      <point x="166" y="548"/>
      <point x="47" y="417"/>
      <point x="47" y="273" type="curve" smooth="yes"/>
      <point x="47" y="132"/>
      <point x="159" y="-4"/>
    </contour>
    <contour>
      <point x="325" y="39" type="curve" smooth="yes"/>
      <point x="189" y="39"/>
      <point x="94" y="151"/>
      <point x="94" y="272" type="curve" smooth="yes"/>
      <point x="94" y="387"/>
      <point x="185" y="506"/>
      <point x="324" y="506" type="curve" smooth="yes"/>
      <point x="457" y="506"/>
      <point x="554" y="394"/>
      <point x="554" y="273" type="curve" smooth="yes"/>
      <point x="554" y="158"/>
      <point x="464" y="39"/>
    </contour>
    <contour>
      <point x="536" y="0" type="line"/>
      <point x="584" y="0" type="line"/>
      <point x="438" y="164" type="line"/>
      <point x="390" y="164" type="line"/>
    </contour>
  </outline>
</glyph>
<glyph name="Z.sc" format="1">
  <advance width="548"/>
  <outline>
    <contour>
      <point x="335" y="707" type="move" name="top"/>
    </contour>
    <contour>
      <point x="37" y="0" type="line"/>
      <point x="507" y="0" type="line"/>
      <point x="507" y="42" type="line"/>
      <point x="96" y="42" type="line"/>
      <point x="509" y="507" type="line"/>
      <point x="509" y="545" type="line"/>
      <point x="43" y="545" type="line"/>
      <point x="43" y="502" type="line"/>
      <point x="453" y="502" type="line"/>
      <point x="37" y="38" type="line"/>
    </contour>
  </outline>
</glyph>
<glyph name="a.alt" format="1">
  <advance width="615"/>
  <outline>
    <contour>
      <point x="289" y="-10" type="curve" smooth="yes"/>
      <point x="375" y="-10"/>
      <point x="447" y="39"/>
      <point x="487" y="110" type="curve"/>
      <point x="487" y="0" type="line"/>
      <point x="537" y="0" type="line"/>
      <point x="537" y="517" type="line"/>
      <point x="487" y="517" type="line"/>
      <point x="487" y="406" type="line"/>
      <point x="447" y="477"/>
      <point x="376" y="529"/>
      <point x="286" y="529" type="curve" smooth="yes"/>
      <point x="150" y="529"/>
      <point x="42" y="406"/>
      <point x="42" y="259" type="curve" smooth="yes"/>
      <point x="42" y="119"/>
      <point x="143" y="-10"/>
    </contour>
    <contour>
      <point x="487" y="174" type="line"/>
      <point x="456" y="97"/>
      <point x="389" y="35"/>
      <point x="298" y="35" type="curve" smooth="yes"/>
      <point x="179" y="35"/>
      <point x="93" y="140"/>
      <point x="93" y="258" type="curve" smooth="yes"/>
      <point x="93" y="367"/>
      <point x="175" y="484"/>
      <point x="297" y="484" type="curve" smooth="yes"/>
      <point x="383" y="484"/>
      <point x="456" y="423"/>
      <point x="487" y="342" type="curve"/>
    </contour>
  </outline>
</glyph>
<glyph name="eight.numerator" format="1">
  <advance width="392"/>
  <outline>
    <contour>
      <point x="352" y="445" type="curve" smooth="yes"/>
      <point x="352" y="496"/>
      <point x="311" y="532"/>
      <point x="256" y="548" type="curve"/>
      <point x="300" y="562"/>
      <point x="336" y="591"/>
      <point x="336" y="632" type="curve" smooth="yes"/>
      <point x="336" y="694"/>
      <point x="264" y="730"/>
      <point x="196" y="730" type="curve" smooth="yes"/>
      <point x="128" y="730"/>
      <point x="55" y="693"/>
      <point x="55" y="631" type="curve" smooth="yes"/>
      <point x="55" y="590"/>
      <point x="92" y="562"/>
      <point x="134" y="548" type="curve"/>
      <point x="87" y="533"/>
      <point x="39" y="499"/>
      <point x="39" y="447" type="curve" smooth="yes"/>
      <point x="39" y="385"/>
      <point x="103" y="332"/>
      <point x="194" y="332" type="curve" smooth="yes"/>
      <point x="279" y="332"/>
      <point x="352" y="377"/>
    </contour>
    <contour>
      <point x="316" y="449" type="curve" smooth="yes"/>
      <point x="316" y="399"/>
      <point x="255" y="367"/>
      <point x="196" y="367" type="curve" smooth="yes"/>
      <point x="140" y="367"/>
      <point x="75" y="397"/>
      <point x="75" y="448" type="curve" smooth="yes"/>
      <point x="75" y="499"/>
      <point x="136" y="532"/>
      <point x="195" y="532" type="curve" smooth="yes"/>
      <point x="251" y="532"/>
      <point x="316" y="501"/>
    </contour>
    <contour>
      <point x="91" y="629" type="curve" smooth="yes"/>
      <point x="91" y="671"/>
      <point x="141" y="697"/>
      <point x="195" y="697" type="curve" smooth="yes"/>
      <point x="248" y="697"/>
      <point x="300" y="672"/>
      <point x="300" y="629" type="curve" smooth="yes"/>
      <point x="300" y="587"/>
      <point x="244" y="562"/>
      <point x="195" y="562" type="curve" smooth="yes"/>
      <point x="147" y="562"/>
      <point x="91" y="586"/>
    </contour>
  </outline>
</glyph>
<glyph name="five.numerator" format="1">
  <advance width="369"/>
  <outline>
    <contour>
      <point x="186" y="586" type="curve" smooth="yes"/>
      <point x="147" y="586"/>
      <point x="111" y="575"/>
      <point x="86" y="553" type="curve"/>
      <point x="121" y="695" type="line"/>
      <point x="312" y="695" type="line"/>
      <point x="312" y="730" type="line"/>
      <point x="94" y="730" type="line"/>
      <point x="90" y="707"/>
      <point x="51" y="551"/>
      <point x="42" y="509" type="curve"/>
      <point x="76" y="509" type="line"/>
      <point x="98" y="538"/>
      <point x="140" y="557"/>
      <point x="182" y="557" type="curve" smooth="yes"/>
      <point x="239" y="557"/>
      <point x="299" y="523"/>
      <point x="299" y="462" type="curve" smooth="yes"/>
      <point x="299" y="405"/>
      <point x="247" y="365"/>
      <point x="180" y="365" type="curve" smooth="yes"/>
      <point x="127" y="365"/>
      <point x="82" y="389"/>
      <point x="58" y="426" type="curve"/>
      <point x="33" y="408" type="line"/>
      <point x="59" y="362"/>
      <point x="114" y="332"/>
      <point x="178" y="332" type="curve" smooth="yes"/>
      <point x="264" y="332"/>
      <point x="335" y="384"/>
      <point x="335" y="462" type="curve" smooth="yes"/>
      <point x="335" y="535"/>
      <point x="269" y="586"/>
    </contour>
  </outline>
</glyph>
<glyph name="nine.denominator" format="1">
  <advance width="399"/>
  <outline>
    <contour>
      <point x="34" y="261" type="curve" smooth="yes"/>
      <point x="34" y="336"/>
      <point x="105" y="396"/>
      <point x="194" y="396" type="curve" smooth="yes"/>
      <point x="289" y="396"/>
      <point x="357" y="334"/>
      <point x="357" y="232" type="curve" smooth="yes"/>
      <point x="357" y="71"/>
      <point x="290" y="-5"/>
      <point x="190" y="-5" type="curve" smooth="yes"/>
      <point x="131" y="-5"/>
      <point x="79" y="22"/>
      <point x="56" y="68" type="curve"/>
      <point x="80" y="90" type="line"/>
      <point x="97" y="52"/>
      <point x="141" y="28"/>
      <point x="191" y="28" type="curve" smooth="yes"/>
      <point x="269" y="28"/>
      <point x="322" y="91"/>
      <point x="323" y="199" type="curve"/>
      <point x="303" y="157"/>
      <point x="249" y="128"/>
      <point x="191" y="128" type="curve" smooth="yes"/>
      <point x="103" y="128"/>
      <point x="34" y="187"/>
    </contour>
    <contour>
      <point x="193" y="364" type="curve" smooth="yes"/>
      <point x="125" y="364"/>
      <point x="69" y="317"/>
      <point x="69" y="262" type="curve" smooth="yes"/>
      <point x="69" y="206"/>
      <point x="126" y="159"/>
      <point x="194" y="159" type="curve" smooth="yes"/>
      <point x="263" y="159"/>
      <point x="319" y="206"/>
      <point x="319" y="261" type="curve" smooth="yes"/>
      <point x="319" y="316"/>
      <point x="262" y="364"/>
    </contour>
  </outline>
</glyph>
<glyph name="one.denominator" format="1">
  <advance width="274"/>
  <outline>
    <contour>
      <point x="171" y="34" type="line"/>
      <point x="171" y="399" type="line"/>
      <point x="136" y="399" type="line"/>
      <point x="134" y="396"/>
      <point x="79" y="344"/>
      <point x="35" y="344" type="curve"/>
      <point x="35" y="309" type="line"/>
      <point x="69" y="309"/>
      <point x="121" y="339"/>
      <point x="136" y="357" type="curve"/>
      <point x="136" y="34" type="line"/>
      <point x="49" y="34" type="line"/>
      <point x="49" y="0" type="line"/>
      <point x="253" y="0" type="line"/>
      <point x="253" y="34" type="line"/>
    </contour>
  </outline>
</glyph>
<glyph name="seven.denominator" format="1">
  <advance width="345"/>
  <outline>
    <contour>
      <point x="64" y="0" type="line"/>
      <point x="105" y="0" type="line"/>
      <point x="336" y="393" type="line"/>
      <point x="27" y="393" type="line"/>
      <point x="27" y="358" type="line"/>
      <point x="280" y="358" type="line"/>
    </contour>
  </outline>
</glyph>
<glyph name="seven.lnum" format="1">
  <advance width="510"/>
  <outline>
    <contour>
      <point x="92" y="0" type="line"/>
      <point x="148" y="0" type="line"/>
      <point x="510" y="710" type="line"/>
      <point x="30" y="710" type="line"/>
      <point x="30" y="663" type="line"/>
      <point x="430" y="663" type="line"/>
    </contour>
  </outline>
</glyph>
<glyph name="two.numerator" format="1">
  <advance width="381"/>
  <outline>
    <contour>
      <point x="337" y="333" type="line"/>
      <point x="337" y="367" type="line"/>
      <point x="83" y="367" type="line"/>
      <point x="83" y="405"/>
      <point x="102" y="461"/>
      <point x="198" y="491" type="curve" smooth="yes"/>
      <point x="253" y="508"/>
      <point x="339" y="535"/>
      <point x="339" y="616" type="curve" smooth="yes"/>
      <point x="339" y="679"/>
      <point x="293" y="731"/>
      <point x="199" y="731" type="curve" smooth="yes"/>
      <point x="101" y="731"/>
      <point x="49" y="674"/>
      <point x="42" y="664" type="curve"/>
      <point x="66" y="640" type="line"/>
      <point x="85" y="662"/>
      <point x="125" y="697"/>
      <point x="194" y="697" type="curve" smooth="yes"/>
      <point x="266" y="697"/>
      <point x="300" y="660"/>
      <point x="300" y="617" type="curve" smooth="yes"/>
      <point x="300" y="552"/>
      <point x="223" y="535"/>
      <point x="162" y="512" type="curve" smooth="yes"/>
      <point x="81" y="481"/>
      <point x="37" y="434"/>
      <point x="37" y="333" type="curve"/>
    </contour>
  </outline>
</glyph>
